<svg width="32" height="32" viewBox="0 0 32 32" fill="none" xmlns="http://www.w3.org/2000/svg">
<path d="M19.1362 17.248C18.7522 17.056 17.9522 16.8 16.9602 16.736C15.9682 16.672 14.7202 16.736 14.7202 16.736V20.96C14.7202 20.96 16.0322 20.992 16.8962 20.928C17.7602 20.864 18.6882 20.64 19.1362 20.384C19.5842 20.128 20.1282 19.744 20.1282 18.784C20.1602 17.824 19.5202 17.44 19.1362 17.248ZM16.3842 14.784C17.1202 14.752 17.8562 14.592 18.4322 14.272C18.9762 13.952 19.2962 13.504 19.2962 12.768C19.2642 12.064 18.7842 11.424 17.9842 11.2C17.1842 10.944 16.6402 10.944 16.0002 10.912C15.3922 10.912 14.7522 10.944 14.7522 10.944V14.752C14.7522 14.784 15.6802 14.816 16.3842 14.784Z" fill="#FF9500"/>
<path d="M16 0C7.168 0 0 7.168 0 16C0 24.832 7.168 32 16 32C24.832 32 32 24.832 32 16C32 7.168 24.832 0 16 0ZM22.528 22.112C21.344 22.944 20.064 23.104 19.488 23.168C19.2 23.2 18.72 23.232 18.24 23.264V26.464H16.256V23.296H14.752V26.464H12.768V23.296H8.896L9.312 20.928H10.496C10.88 20.928 11.072 20.896 11.232 20.736C11.392 20.576 11.424 20.352 11.424 20.16V12C11.424 11.488 11.392 11.36 11.136 11.072C10.912 10.816 10.336 10.784 10.048 10.784H8.896V8.736H12.768V5.568H14.752V8.736H16.256V5.568H18.24V8.768C19.712 8.864 20.8 9.152 21.76 9.856C23.008 10.784 22.944 12.352 22.912 12.736C22.88 13.12 22.72 13.856 22.4 14.304C22.08 14.784 21.248 15.232 21.248 15.232C21.248 15.232 22.208 15.424 22.88 15.936C23.552 16.448 24.064 17.344 24.032 18.656C23.968 20 23.712 21.28 22.528 22.112Z" fill="#FF9500"/>
</svg>
