<svg width="32" height="32" viewBox="0 0 32 32" fill="none" xmlns="http://www.w3.org/2000/svg">
<path d="M16 0C7.168 0 0 7.168 0 16C0 24.832 7.168 32 16 32C24.832 32 32 24.832 32 16C32 7.168 24.832 0 16 0ZM15.808 26.592L9.472 17.632L15.808 21.344V26.592ZM15.808 20.032L9.44 16.32L15.808 13.536V20.032ZM15.808 13.088L9.632 15.776L15.808 5.44V13.088ZM16.192 5.44L22.432 15.84L16.192 13.088V5.44ZM16.192 26.592V21.344L22.528 17.632L16.192 26.592ZM16.192 20.032V13.536L22.56 16.32L16.192 20.032Z" fill="#5B6ABF"/>
</svg>
