<svg width="32" height="32" viewBox="0 0 32 32" fill="none" xmlns="http://www.w3.org/2000/svg">
<path d="M16 0C7.168 0 0 7.168 0 16C0 24.832 7.168 32 16 32C24.832 32 32 24.832 32 16C32 7.168 24.832 0 16 0ZM22.688 23.136C21.632 24.928 19.328 25.568 17.472 24.544C15.616 23.52 14.976 21.28 16.032 19.488C16.48 18.752 16.192 17.792 15.424 17.376C14.656 16.96 13.696 17.216 13.28 17.92C13.28 17.92 13.28 17.952 13.248 17.952C12.192 19.744 9.888 20.384 8.032 19.36C6.176 18.336 5.536 16.096 6.592 14.304C7.648 12.512 9.952 11.872 11.808 12.896C12.416 13.248 12.896 13.728 13.248 14.272C13.696 14.976 14.656 15.2 15.424 14.784C16.192 14.336 16.416 13.408 15.968 12.672C14.88 10.88 15.456 8.608 17.28 7.552C19.104 6.496 21.44 7.072 22.528 8.832C23.616 10.592 23.008 12.864 21.184 13.92C20.608 14.272 19.936 14.432 19.264 14.432C18.4 14.464 17.696 15.168 17.696 16C17.696 16.864 18.432 17.568 19.328 17.536C20 17.536 20.64 17.696 21.248 18.016C23.072 19.072 23.744 21.344 22.688 23.136Z" fill="#1478A9"/>
</svg>
